<svg xmlns="http://www.w3.org/2000/svg" viewBox="0 0 64 64" width="64" height="64">
  <g fill="#f0c14b">
    <path d="M24,58c0,1.1-0.9,2-2,2H8c-1.1,0-2-0.9-2-2V14c0-1.1,0.9-2,2-2h14c1.1,0,2,0.9,2,2v44z"/>
    <path d="M56,14c1.1,0,2,0.9,2,2v44c0,1.1-0.9,2-2,2H38c-1.1,0-2-0.9-2-2V14c0-1.1,0.9-2,2-2h18z"/>
  </g>
  <g fill="#9c7b3f">
    <path d="M16,42c-1.5,0-2.9-1.1-3.3-2.6L10,34c-0.4-1.5,0.7-3,2.2-3h10c1.5,0,2.6,1.5,2.2,3l-2.7,5.4c-0.4,1.5-1.8,2.6-3.3,2.6H16z"/>
    <path d="M48,42c-1.5,0-2.9-1.1-3.3-2.6L42,34c-0.4-1.5,0.7-3,2.2-3h10c1.5,0,2.6,1.5,2.2,3l-2.7,5.4c-0.4,1.5-1.8,2.6-3.3,2.6H48z"/>
  </g>
</svg>
